<?xml version="1.0" encoding="UTF-8"?><svg id="Layer_1" xmlns="http://www.w3.org/2000/svg" viewBox="0 0 296.07 177.26"><defs><style>.cls-1{fill:#fcb340;}.cls-2{fill:#c00;}.cls-3{fill:#f90;}</style></defs><g id="layer1"><g id="g10305"><path id="path2268" class="cls-3" d="M296.07,88.63c.01,48.94-39.65,88.61-88.58,88.63-48.94,.01-88.61-39.65-88.63-88.58v-.04C118.84,39.69,158.5,.01,207.44,0c48.94-.01,88.61,39.65,88.63,88.58v.04Z"/><path id="path1350" class="cls-2" d="M88.03,.02C39.39,.33,0,39.91,0,88.63s39.69,88.6,88.61,88.6c22.96,0,43.88-8.75,59.62-23.09,0,0,0,0,0,0h.02c3.22-2.94,6.23-6.11,8.99-9.49h-18.15c-2.42-2.93-4.63-5.98-6.61-9.13h31.31c1.9-3.05,3.63-6.21,5.16-9.49h-41.63c-1.42-3.04-2.65-6.15-3.7-9.31h49.04c2.96-8.83,4.56-18.28,4.56-28.1,0-6.51-.71-12.86-2.04-18.97h-54.16c.67-3.15,1.52-6.25,2.53-9.31h49.06c-1.1-3.25-2.37-6.42-3.82-9.49h-41.47c1.5-3.2,3.19-6.31,5.08-9.31h31.29c-2.08-3.32-4.39-6.49-6.88-9.49h-17.44c2.7-3.17,5.67-6.16,8.89-8.95C132.5,8.77,111.57,.02,88.61,.02c-.19,0-.38,0-.57,0Z"/><path id="use9412" class="cls-1" d="M287.18,134.95c.48,0,.95,.12,1.41,.37,.46,.25,.81,.6,1.07,1.06,.26,.46,.38,.94,.38,1.43s-.13,.97-.38,1.42c-.25,.46-.61,.81-1.06,1.06-.45,.25-.93,.38-1.42,.38s-.97-.13-1.43-.38c-.45-.25-.81-.61-1.06-1.06-.25-.46-.38-.93-.38-1.42s.13-.98,.38-1.43c.26-.46,.61-.81,1.07-1.06,.46-.25,.93-.37,1.41-.37m0,.47c-.4,0-.79,.1-1.18,.31-.38,.21-.68,.5-.89,.89-.22,.38-.33,.78-.33,1.19s.11,.81,.32,1.19c.21,.38,.51,.67,.89,.88,.38,.21,.78,.32,1.19,.32s.81-.1,1.19-.32c.38-.21,.67-.51,.88-.88,.21-.38,.31-.77,.31-1.19s-.11-.81-.32-1.19c-.21-.39-.51-.68-.89-.89-.38-.21-.77-.31-1.17-.31m-1.26,3.98v-3.08h1.06c.36,0,.62,.03,.78,.09,.16,.06,.29,.15,.39,.3,.1,.14,.14,.29,.14,.45,0,.23-.08,.42-.24,.59-.16,.17-.37,.26-.64,.28,.11,.04,.2,.1,.26,.16,.12,.12,.27,.32,.45,.61l.38,.6h-.61l-.27-.49c-.21-.38-.39-.62-.52-.72-.09-.07-.22-.1-.4-.1h-.29v1.31h-.5m.5-1.74h.6c.29,0,.48-.04,.59-.13,.11-.09,.16-.2,.16-.34,0-.09-.02-.17-.08-.24-.05-.07-.12-.12-.21-.16-.09-.04-.26-.05-.5-.05h-.56v.93"/></g></g></svg>