<?xml version="1.0" encoding="utf-8"?>
<!-- Generator: Adobe Illustrator 27.0.0, SVG Export Plug-In . SVG Version: 6.00 Build 0)  -->
<svg version="1.1"
	 id="Layer_1" xmlns:sodipodi="http://sodipodi.sourceforge.net/DTD/sodipodi-0.dtd" xmlns:svg="http://www.w3.org/2000/svg" xmlns:cc="http://creativecommons.org/ns#" xmlns:inkscape="http://www.inkscape.org/namespaces/inkscape" xmlns:dc="http://purl.org/dc/elements/1.1/" xmlns:rdf="http://www.w3.org/1999/02/22-rdf-syntax-ns#" inkscape:export-filename="C:\Users\tjdru\OneDrive\Pictures\Logos\Other\visalogo1992.png"
	 xmlns="http://www.w3.org/2000/svg" xmlns:xlink="http://www.w3.org/1999/xlink" x="0px" y="0px" viewBox="0 0 544.6 347.8"
	 style="enable-background:new 0 0 544.6 347.8;" xml:space="preserve">
<style type="text/css">
	.st0{fill:#004D8F;}
	.st1{fill:#FFFFFF;}
	.st2{fill:#FFA425;}
	.st3{display:none;fill:#004D8F;}
</style>
<sodipodi:namedview  bordercolor="#666666" borderopacity="1" gridtolerance="10" guidetolerance="10" id="namedview10815" inkscape:current-layer="layer1" inkscape:cx="337.60017" inkscape:cy="192.25012" inkscape:document-rotation="0" inkscape:guide-bbox="true" inkscape:pageopacity="0" inkscape:pageshadow="2" inkscape:snap-global="false" inkscape:window-height="705" inkscape:window-maximized="1" inkscape:window-width="1366" inkscape:window-x="-8" inkscape:window-y="-8" inkscape:zoom="1" objecttolerance="10" pagecolor="#ffffff" showgrid="false" showguides="true">
	</sodipodi:namedview>
<g id="layer1" transform="translate(21.920583)" inkscape:groupmode="layer" inkscape:label="Layer 1">
	<g id="g6453">
		<path id="path2244" inkscape:connector-curvature="0" sodipodi:nodetypes="ccccc" class="st0" d="M-21.9,0v347.8h544.6V0H-21.9z"
			/>
		<path id="path10790" inkscape:connector-curvature="0" sodipodi:nodetypes="ccccc" class="st1" d="M-15.4,6.5h531.5v334.7
			l-531.5,0L-15.4,6.5z"/>
		<path id="polyline10794" inkscape:connector-curvature="0" sodipodi:nodetypes="ccccc" class="st0" d="M494.9,103.1V31.6H4.3v71.5
			H494.9z"/>
		<path id="polyline10796" inkscape:connector-curvature="0" sodipodi:nodetypes="ccccc" class="st2" d="M494.9,318.9v-71.5H4.3
			v71.5L494.9,318.9z"/>
		<path id="path10806" sodipodi:nodetypes="cccccccccccccccccccccccccccccccccccccccccccccccccccc" class="st3" d="M327,234.6h-25.2
			l66.9-110.9h28.4l9.6,110.9h-29.5L375,209h-34L327,234.6z M349,194.5h24.9l-3.2-39.4L349,194.5z M274.5,234.9
			c10-1.7,17.5-4.9,24.1-10.2c13.1-10.4,17.9-28.9,10.3-41c-3.9-6.3-12-10.7-18.6-14.9c-6.6-4.2-11.9-8.2-14.1-12.6
			c-2.2-4.5-1.6-9.7,1.3-12.6c7.5-7.4,19.5-5.5,28.5-3c5.1,1.4,9.2,3.6,12.7,6.4l10.4-16.6c-4.8-3.5-10.3-5.9-18.1-7.7
			c-7.7-1.8-17.8-3-26.5-2.3c-8.7,0.6-16.1,3.1-22.7,7.4c-6.6,4.3-12.3,10.6-15.5,17.3c-3.2,6.7-4.1,14-1.9,20.1
			c4.3,12.4,15.5,17.9,25.4,23.9c4.3,2.6,8.1,5.5,10.1,9.1c2,3.5,2.3,7.6-0.1,11c-2.4,3.4-7.5,6.1-13.4,7.1s-12.5,0.2-18.7-1.7
			c-6.2-1.9-11.9-4.9-16.9-8.8l-6.5,19.5C238.1,237.5,257.7,237.7,274.5,234.9L274.5,234.9z M241.2,123.7H210L175,234.6h31.2
			L241.2,123.7z M201.3,123.7L133,234.6h-29.7l-2.7-87.8c-0.1-4-0.2-8.1-1.7-11.3c-1.5-3.2-3.9-5.4-7-7c-3.1-1.6-7-2.4-10.9-2.4
			v-2.5h49l2.4,75.5l43.7-75.5L201.3,123.7z"/>
		<path id="path394" inkscape:connector-curvature="0" sodipodi:nodetypes="cccccccccccccccccccccccccccc" class="st1" d="
			M478.1,297.1c-5,0-9.1,4-9.1,9c0,5.1,4.1,9.1,9.1,9.1c5,0,9-4,9-9.1C487.1,301.1,483.1,297.1,478.1,297.1z M478.1,298.5
			c4.3,0,7.7,3.4,7.7,7.7c0,4.3-3.4,7.7-7.7,7.7c-4.3,0-7.7-3.4-7.7-7.7C470.4,301.9,473.8,298.5,478.1,298.5z M479.6,306.5
			c1.8,0,3.2-0.8,3.2-2.8c0-0.8-0.4-1.7-1.2-2.2c-0.8-0.5-1.6-0.6-2.4-0.6h-4.5v10.1h1.3v-4.7h2.2l2.9,4.7h1.5L479.6,306.5z
			 M476,305.6V302h2.9c1.2,0,2.6,0.2,2.6,1.7c0,2.1-2.2,1.8-3.6,1.8H476z"/>
		<path id="path394-2" inkscape:connector-curvature="0" sodipodi:nodetypes="cccccccccccccccccccccccccccc" class="st3" d="
			M413.9,120.9c-5,0-9.1,4-9.1,9c0,5.1,4.1,9.1,9.1,9.1c5,0,9-4,9-9.1C422.9,124.9,418.9,120.9,413.9,120.9z M413.9,122.2
			c4.3,0,7.7,3.4,7.7,7.7c0,4.3-3.4,7.7-7.7,7.7c-4.3,0-7.7-3.4-7.7-7.7C406.2,125.6,409.6,122.2,413.9,122.2z M415.3,130.3
			c1.8,0,3.2-0.8,3.2-2.8c0-0.8-0.4-1.7-1.2-2.2c-0.8-0.5-1.6-0.6-2.4-0.6h-4.5v10.1h1.3v-4.7h2.2l2.9,4.7h1.5L415.3,130.3z
			 M411.8,129.3v-3.6h2.9c1.2,0,2.6,0.2,2.6,1.7c0,2.1-2.2,1.8-3.6,1.8H411.8z"/>
	</g>
</g>
</svg>
